<mxfile host="app.diagrams.net" agent="Mozilla/5.0 (Windows NT 10.0; Win64; x64) AppleWebKit/537.36 (KHTML, like Gecko) Chrome/130.0.0.0 Safari/537.36" version="24.8.3">
  <diagram name="Halaman-1" id="Q9kWaHQqX3te9JWz7AQ6">
    <mxGraphModel dx="3096" dy="2249" grid="1" gridSize="10" guides="1" tooltips="1" connect="1" arrows="1" fold="1" page="1" pageScale="1" pageWidth="827" pageHeight="1169" math="0" shadow="0">
      <root>
        <mxCell id="0" />
        <mxCell id="1" parent="0" />
        <mxCell id="Hyb_VPHY6Jzi_QFygk6Y-4" value="&#xa;  &#xa;    &#xa;      &#xa;        &#xa;        &#xa;&#xa;        &#xa;        &#xa;          &#xa;        &#xa;        &#xa;        &#xa;          &#xa;        &#xa;&#xa;        &#xa;          &#xa;        &#xa;&#xa;        &#xa;          &#xa;        &#xa;&#xa;        &#xa;          &#xa;        &#xa;&#xa;        &#xa;          &#xa;        &#xa;&#xa;        &#xa;        &#xa;          &#xa;        &#xa;        &#xa;        &#xa;          &#xa;        &#xa;&#xa;        &#xa;          &#xa;        &#xa;&#xa;        &#xa;          &#xa;        &#xa;&#xa;        &#xa;          &#xa;        &#xa;&#xa;        &#xa;        &#xa;          &#xa;        &#xa;        &#xa;        &#xa;          &#xa;        &#xa;&#xa;        &#xa;          &#xa;        &#xa;&#xa;        &#xa;          &#xa;        &#xa;&#xa;        &#xa;          &#xa;        &#xa;&#xa;        &#xa;        &#xa;          &#xa;        &#xa;        &#xa;        &#xa;          &#xa;        &#xa;&#xa;        &#xa;          &#xa;        &#xa;&#xa;        &#xa;          &#xa;        &#xa;&#xa;        &#xa;          &#xa;        &#xa;        &#xa;      &#xa;    &#xa;  &#xa;" style="text;whiteSpace=wrap;html=1;" vertex="1" parent="1">
          <mxGeometry y="-330" width="30" height="1760" as="geometry" />
        </mxCell>
        <mxCell id="Hyb_VPHY6Jzi_QFygk6Y-9" value="&#xa;  &#xa;    &#xa;      &#xa;        &#xa;        &#xa;&#xa;        &#xa;        &#xa;          &#xa;        &#xa;        &#xa;        &#xa;          &#xa;        &#xa;&#xa;        &#xa;          &#xa;        &#xa;&#xa;        &#xa;          &#xa;        &#xa;&#xa;        &#xa;          &#xa;        &#xa;&#xa;        &#xa;          &#xa;        &#xa;&#xa;        &#xa;        &#xa;          &#xa;        &#xa;        &#xa;        &#xa;          &#xa;        &#xa;&#xa;        &#xa;          &#xa;        &#xa;&#xa;        &#xa;          &#xa;        &#xa;&#xa;        &#xa;          &#xa;        &#xa;&#xa;        &#xa;        &#xa;          &#xa;        &#xa;        &#xa;        &#xa;          &#xa;        &#xa;&#xa;        &#xa;          &#xa;        &#xa;&#xa;        &#xa;          &#xa;        &#xa;&#xa;        &#xa;          &#xa;        &#xa;&#xa;        &#xa;        &#xa;          &#xa;        &#xa;        &#xa;        &#xa;          &#xa;        &#xa;&#xa;        &#xa;          &#xa;        &#xa;&#xa;        &#xa;          &#xa;        &#xa;&#xa;        &#xa;          &#xa;        &#xa;        &#xa;      &#xa;    &#xa;  &#xa;" style="text;whiteSpace=wrap;html=1;" vertex="1" parent="1">
          <mxGeometry width="30" height="1430" as="geometry" />
        </mxCell>
        <mxCell id="Hyb_VPHY6Jzi_QFygk6Y-70" value="" style="strokeWidth=1;shadow=0;dashed=0;align=center;shape=mxgraph.mockup.containers.browserWindow;rSize=0;strokeColor2=#008cff;strokeColor3=#c4c4c4;mainText=,;recursiveResize=0;fontColor=#FFFFFF;labelBackgroundColor=none;html=1;movable=0;resizable=0;rotatable=0;deletable=0;editable=0;locked=1;connectable=0;" vertex="1" parent="1">
          <mxGeometry x="20" y="-1100" width="770" height="700" as="geometry" />
        </mxCell>
        <mxCell id="Hyb_VPHY6Jzi_QFygk6Y-71" value="Page 1" style="strokeWidth=1;shadow=0;dashed=0;align=center;html=1;shape=mxgraph.mockup.containers.anchor;fontSize=17;fontColor=#666666;align=left;whiteSpace=wrap;" vertex="1" parent="Hyb_VPHY6Jzi_QFygk6Y-70">
          <mxGeometry x="60" y="12" width="110" height="26" as="geometry" />
        </mxCell>
        <mxCell id="Hyb_VPHY6Jzi_QFygk6Y-72" value="https://www.draw.io" style="strokeWidth=1;shadow=0;dashed=0;align=center;html=1;shape=mxgraph.mockup.containers.anchor;rSize=0;fontSize=17;fontColor=#666666;align=left;" vertex="1" parent="Hyb_VPHY6Jzi_QFygk6Y-70">
          <mxGeometry x="130" y="60" width="250" height="26" as="geometry" />
        </mxCell>
        <mxCell id="Hyb_VPHY6Jzi_QFygk6Y-75" value="" style="strokeWidth=1;shadow=0;dashed=0;align=center;html=1;shape=mxgraph.mockup.forms.rrect;rSize=0;strokeColor=#999999;fillColor=#ffffff;" vertex="1" parent="1">
          <mxGeometry x="-420" y="-820" width="200" height="300" as="geometry" />
        </mxCell>
        <mxCell id="Hyb_VPHY6Jzi_QFygk6Y-76" value="Sign In" style="strokeWidth=1;shadow=0;dashed=0;align=center;html=1;shape=mxgraph.mockup.forms.anchor;fontSize=12;fontColor=#666666;align=left;resizeWidth=1;spacingLeft=0;" vertex="1" parent="Hyb_VPHY6Jzi_QFygk6Y-75">
          <mxGeometry width="100" height="20" relative="1" as="geometry">
            <mxPoint x="10" y="10" as="offset" />
          </mxGeometry>
        </mxCell>
        <mxCell id="Hyb_VPHY6Jzi_QFygk6Y-77" value="" style="shape=line;strokeColor=#ddeeff;strokeWidth=2;html=1;resizeWidth=1;" vertex="1" parent="Hyb_VPHY6Jzi_QFygk6Y-75">
          <mxGeometry width="180" height="10" relative="1" as="geometry">
            <mxPoint x="10" y="30" as="offset" />
          </mxGeometry>
        </mxCell>
        <mxCell id="Hyb_VPHY6Jzi_QFygk6Y-78" value="User Name:" style="strokeWidth=1;shadow=0;dashed=0;align=center;html=1;shape=mxgraph.mockup.forms.anchor;fontSize=12;fontColor=#666666;align=left;resizeWidth=1;spacingLeft=0;" vertex="1" parent="Hyb_VPHY6Jzi_QFygk6Y-75">
          <mxGeometry width="100" height="20" relative="1" as="geometry">
            <mxPoint x="10" y="40" as="offset" />
          </mxGeometry>
        </mxCell>
        <mxCell id="Hyb_VPHY6Jzi_QFygk6Y-79" value="johndoe" style="strokeWidth=1;shadow=0;dashed=0;align=center;html=1;shape=mxgraph.mockup.forms.rrect;rSize=0;strokeColor=#999999;fontColor=#666666;align=left;spacingLeft=5;resizeWidth=1;" vertex="1" parent="Hyb_VPHY6Jzi_QFygk6Y-75">
          <mxGeometry width="150" height="25" relative="1" as="geometry">
            <mxPoint x="10" y="60" as="offset" />
          </mxGeometry>
        </mxCell>
        <mxCell id="Hyb_VPHY6Jzi_QFygk6Y-80" value="Password:" style="strokeWidth=1;shadow=0;dashed=0;align=center;html=1;shape=mxgraph.mockup.forms.anchor;fontSize=12;fontColor=#666666;align=left;resizeWidth=1;spacingLeft=0;" vertex="1" parent="Hyb_VPHY6Jzi_QFygk6Y-75">
          <mxGeometry width="100" height="20" relative="1" as="geometry">
            <mxPoint x="10" y="95" as="offset" />
          </mxGeometry>
        </mxCell>
        <mxCell id="Hyb_VPHY6Jzi_QFygk6Y-81" value="********" style="strokeWidth=1;shadow=0;dashed=0;align=center;html=1;shape=mxgraph.mockup.forms.rrect;rSize=0;strokeColor=#999999;fontColor=#666666;align=left;spacingLeft=5;resizeWidth=1;" vertex="1" parent="Hyb_VPHY6Jzi_QFygk6Y-75">
          <mxGeometry width="150" height="25" relative="1" as="geometry">
            <mxPoint x="10" y="115" as="offset" />
          </mxGeometry>
        </mxCell>
        <mxCell id="Hyb_VPHY6Jzi_QFygk6Y-82" value="SIGN IN" style="strokeWidth=1;shadow=0;dashed=0;align=center;html=1;shape=mxgraph.mockup.forms.rrect;rSize=5;strokeColor=none;fontColor=#ffffff;fillColor=#66bbff;fontSize=16;fontStyle=1;" vertex="1" parent="Hyb_VPHY6Jzi_QFygk6Y-75">
          <mxGeometry y="1" width="80" height="30" relative="1" as="geometry">
            <mxPoint x="20" y="-150" as="offset" />
          </mxGeometry>
        </mxCell>
        <mxCell id="Hyb_VPHY6Jzi_QFygk6Y-83" value="Forgot Password?" style="strokeWidth=1;shadow=0;dashed=0;align=center;html=1;shape=mxgraph.mockup.forms.anchor;fontSize=12;fontColor=#9999ff;align=left;spacingLeft=0;fontStyle=4;resizeWidth=1;" vertex="1" parent="Hyb_VPHY6Jzi_QFygk6Y-75">
          <mxGeometry y="1" width="150" height="20" relative="1" as="geometry">
            <mxPoint x="10" y="-110" as="offset" />
          </mxGeometry>
        </mxCell>
        <mxCell id="Hyb_VPHY6Jzi_QFygk6Y-84" value="" style="shape=line;strokeColor=#ddeeff;strokeWidth=2;html=1;resizeWidth=1;" vertex="1" parent="Hyb_VPHY6Jzi_QFygk6Y-75">
          <mxGeometry y="1" width="180" height="10" relative="1" as="geometry">
            <mxPoint x="10" y="-90" as="offset" />
          </mxGeometry>
        </mxCell>
        <mxCell id="Hyb_VPHY6Jzi_QFygk6Y-85" value="New User" style="strokeWidth=1;shadow=0;dashed=0;align=center;html=1;shape=mxgraph.mockup.forms.anchor;fontSize=12;fontColor=#666666;align=left;spacingLeft=0;resizeWidth=1;" vertex="1" parent="Hyb_VPHY6Jzi_QFygk6Y-75">
          <mxGeometry y="1" width="150" height="20" relative="1" as="geometry">
            <mxPoint x="10" y="-70" as="offset" />
          </mxGeometry>
        </mxCell>
        <mxCell id="Hyb_VPHY6Jzi_QFygk6Y-86" value="SIGN UP" style="strokeWidth=1;shadow=0;dashed=0;align=center;html=1;shape=mxgraph.mockup.forms.rrect;rSize=5;strokeColor=none;fontColor=#ffffff;fillColor=#66bbff;fontSize=16;fontStyle=1;" vertex="1" parent="Hyb_VPHY6Jzi_QFygk6Y-75">
          <mxGeometry y="1" width="80" height="30" relative="1" as="geometry">
            <mxPoint x="20" y="-50" as="offset" />
          </mxGeometry>
        </mxCell>
        <mxCell id="Hyb_VPHY6Jzi_QFygk6Y-87" value="" style="rounded=0;whiteSpace=wrap;html=1;" vertex="1" parent="1">
          <mxGeometry x="20" y="-990" width="770" height="40" as="geometry" />
        </mxCell>
        <mxCell id="Hyb_VPHY6Jzi_QFygk6Y-88" value="" style="verticalLabelPosition=bottom;shadow=0;dashed=0;align=center;html=1;verticalAlign=top;strokeWidth=1;shape=mxgraph.mockup.graphics.simpleIcon;strokeColor=#999999;" vertex="1" parent="1">
          <mxGeometry x="50" y="-985" width="30" height="30" as="geometry" />
        </mxCell>
        <mxCell id="Hyb_VPHY6Jzi_QFygk6Y-97" value="" style="verticalLabelPosition=bottom;shadow=0;dashed=0;align=center;html=1;verticalAlign=top;strokeWidth=1;shape=mxgraph.mockup.markup.line;strokeColor=#999999;direction=north;" vertex="1" parent="1">
          <mxGeometry x="720" y="-985" width="10" height="30" as="geometry" />
        </mxCell>
        <mxCell id="Hyb_VPHY6Jzi_QFygk6Y-106" value="" style="group" vertex="1" connectable="0" parent="1">
          <mxGeometry x="590" y="-985" width="120" height="30" as="geometry" />
        </mxCell>
        <mxCell id="Hyb_VPHY6Jzi_QFygk6Y-90" value="" style="rounded=0;whiteSpace=wrap;html=1;strokeColor=#7EA6E0;" vertex="1" parent="Hyb_VPHY6Jzi_QFygk6Y-106">
          <mxGeometry y="2.5" width="120" height="25" as="geometry" />
        </mxCell>
        <mxCell id="Hyb_VPHY6Jzi_QFygk6Y-91" value="&lt;font face=&quot;Times New Roman&quot; color=&quot;#7ea6e0&quot;&gt;Buat Post&lt;/font&gt;" style="text;html=1;align=center;verticalAlign=middle;whiteSpace=wrap;rounded=0;" vertex="1" parent="Hyb_VPHY6Jzi_QFygk6Y-106">
          <mxGeometry x="25" width="70" height="30" as="geometry" />
        </mxCell>
        <mxCell id="Hyb_VPHY6Jzi_QFygk6Y-89" value="" style="rounded=0;whiteSpace=wrap;html=1;fillColor=#E6E6E6;strokeColor=none;fontColor=#666666;" vertex="1" parent="1">
          <mxGeometry x="210" y="-982.5" width="337" height="25" as="geometry" />
        </mxCell>
        <mxCell id="Hyb_VPHY6Jzi_QFygk6Y-103" value="" style="group" vertex="1" connectable="0" parent="1">
          <mxGeometry x="742" y="-983" width="30" height="25" as="geometry" />
        </mxCell>
        <mxCell id="Hyb_VPHY6Jzi_QFygk6Y-102" value="" style="ellipse;whiteSpace=wrap;html=1;aspect=fixed;" vertex="1" parent="Hyb_VPHY6Jzi_QFygk6Y-103">
          <mxGeometry width="25" height="25" as="geometry" />
        </mxCell>
        <mxCell id="Hyb_VPHY6Jzi_QFygk6Y-101" value="" style="sketch=0;outlineConnect=0;fontColor=#232F3E;gradientColor=none;fillColor=#232F3D;strokeColor=none;dashed=0;verticalLabelPosition=bottom;verticalAlign=top;align=center;html=1;fontSize=12;fontStyle=0;aspect=fixed;pointerEvents=1;shape=mxgraph.aws4.user;" vertex="1" parent="Hyb_VPHY6Jzi_QFygk6Y-103">
          <mxGeometry x="5" y="5" width="15" height="15" as="geometry" />
        </mxCell>
        <mxCell id="Hyb_VPHY6Jzi_QFygk6Y-107" value="&lt;font face=&quot;Times New Roman&quot;&gt;Cari disini&lt;/font&gt;" style="text;html=1;align=center;verticalAlign=middle;whiteSpace=wrap;rounded=0;fontColor=#808080;" vertex="1" parent="1">
          <mxGeometry x="210" y="-985.5" width="70" height="30" as="geometry" />
        </mxCell>
        <mxCell id="Hyb_VPHY6Jzi_QFygk6Y-108" value="&lt;font face=&quot;Times New Roman&quot;&gt;&lt;b&gt;Logo&lt;/b&gt;&lt;/font&gt;" style="text;html=1;align=center;verticalAlign=middle;whiteSpace=wrap;rounded=0;" vertex="1" parent="1">
          <mxGeometry x="80" y="-985" width="60" height="30" as="geometry" />
        </mxCell>
        <mxCell id="Hyb_VPHY6Jzi_QFygk6Y-111" value="" style="rounded=0;whiteSpace=wrap;html=1;fillColor=#E6E6E6;strokeColor=none;" vertex="1" parent="1">
          <mxGeometry x="114" y="-940" width="60" height="20" as="geometry" />
        </mxCell>
        <mxCell id="Hyb_VPHY6Jzi_QFygk6Y-112" value="For You" style="text;html=1;align=center;verticalAlign=middle;whiteSpace=wrap;rounded=0;fontFamily=Times New Roman;fontSize=9;" vertex="1" parent="1">
          <mxGeometry x="121" y="-937.5" width="46" height="15" as="geometry" />
        </mxCell>
        <mxCell id="Hyb_VPHY6Jzi_QFygk6Y-116" value="" style="verticalLabelPosition=bottom;verticalAlign=top;html=1;shape=mxgraph.basic.rect;fillColor2=none;strokeWidth=1;size=20;indent=5;" vertex="1" parent="1">
          <mxGeometry x="107" y="-910" width="596" height="432.5" as="geometry" />
        </mxCell>
        <mxCell id="Hyb_VPHY6Jzi_QFygk6Y-113" value="" style="group" vertex="1" connectable="0" parent="1">
          <mxGeometry x="130" y="-900" width="30" height="25" as="geometry" />
        </mxCell>
        <mxCell id="Hyb_VPHY6Jzi_QFygk6Y-114" value="" style="ellipse;whiteSpace=wrap;html=1;aspect=fixed;" vertex="1" parent="Hyb_VPHY6Jzi_QFygk6Y-113">
          <mxGeometry width="25" height="25" as="geometry" />
        </mxCell>
        <mxCell id="Hyb_VPHY6Jzi_QFygk6Y-115" value="" style="sketch=0;outlineConnect=0;fontColor=#232F3E;gradientColor=none;fillColor=#232F3D;strokeColor=none;dashed=0;verticalLabelPosition=bottom;verticalAlign=top;align=center;html=1;fontSize=12;fontStyle=0;aspect=fixed;pointerEvents=1;shape=mxgraph.aws4.user;" vertex="1" parent="Hyb_VPHY6Jzi_QFygk6Y-113">
          <mxGeometry x="5" y="5" width="15" height="15" as="geometry" />
        </mxCell>
        <mxCell id="Hyb_VPHY6Jzi_QFygk6Y-117" value="lala" style="text;html=1;align=center;verticalAlign=middle;whiteSpace=wrap;rounded=0;fontFamily=Helvetica;fontStyle=1" vertex="1" parent="1">
          <mxGeometry x="150" y="-902.5" width="60" height="30" as="geometry" />
        </mxCell>
        <mxCell id="Hyb_VPHY6Jzi_QFygk6Y-118" value="&lt;font face=&quot;Times New Roman&quot;&gt;Hari ini 13:00&lt;/font&gt;" style="text;html=1;align=center;verticalAlign=middle;whiteSpace=wrap;rounded=0;fontColor=#808080;" vertex="1" parent="1">
          <mxGeometry x="200" y="-902.5" width="70" height="30" as="geometry" />
        </mxCell>
        <mxCell id="Hyb_VPHY6Jzi_QFygk6Y-119" value="Lorem ipsum dolor sit amet, consectetur adipisicing elit, sed do eiusmod tempor incididunt ut labore et dolore magna aliqua. Ut enim ad minim veniam, quis nostrud exercitation ullamco laboris nisi ut aliquip ex ea commodo consequat. Duis aute irure dolor in reprehenderit in voluptate velit esse cillum dolore eu fugiat nulla pariatur. Excepteur sint occaecat cupidatat non proident, sunt in culpa qui officia deserunt mollit anim id est laborum.&lt;div&gt;&lt;br/&gt;&lt;/div&gt;" style="text;spacingTop=-5;whiteSpace=wrap;html=1;align=left;fontSize=12;fontFamily=Helvetica;fillColor=none;strokeColor=none;" vertex="1" parent="1">
          <mxGeometry x="130" y="-860" width="550" height="100" as="geometry" />
        </mxCell>
        <mxCell id="Hyb_VPHY6Jzi_QFygk6Y-120" value="" style="verticalLabelPosition=bottom;shadow=0;dashed=0;align=center;html=1;verticalAlign=top;strokeWidth=1;shape=mxgraph.mockup.graphics.simpleIcon;strokeColor=#999999;" vertex="1" parent="1">
          <mxGeometry x="130" y="-770" width="550" height="220" as="geometry" />
        </mxCell>
        <mxCell id="Hyb_VPHY6Jzi_QFygk6Y-121" value="" style="verticalLabelPosition=bottom;verticalAlign=top;html=1;shape=mxgraph.basic.heart;strokeWidth=3;" vertex="1" parent="1">
          <mxGeometry x="137" y="-526" width="30" height="30" as="geometry" />
        </mxCell>
        <mxCell id="Hyb_VPHY6Jzi_QFygk6Y-125" value="" style="shape=image;verticalAlign=top;verticalLabelPosition=bottom;labelBackgroundColor=#ffffff;imageAspect=0;image=https://cdn4.iconfinder.com/data/icons/core-ui-outlined/32/outlined_dislike-128.png;html=1;fontSize=7;" vertex="1" parent="1">
          <mxGeometry x="200" y="-530" width="40" height="40" as="geometry" />
        </mxCell>
        <mxCell id="Hyb_VPHY6Jzi_QFygk6Y-127" value="" style="shape=image;html=1;verticalAlign=top;verticalLabelPosition=bottom;labelBackgroundColor=#ffffff;imageAspect=0;aspect=fixed;image=https://cdn0.iconfinder.com/data/icons/google-material-design-3-0/48/ic_comment_48px-128.png" vertex="1" parent="1">
          <mxGeometry x="270" y="-528" width="40" height="40" as="geometry" />
        </mxCell>
        <mxCell id="Hyb_VPHY6Jzi_QFygk6Y-128" value="" style="shape=mxgraph.signs.healthcare.eye;html=1;pointerEvents=1;fillColor=#000000;strokeColor=none;verticalLabelPosition=bottom;verticalAlign=top;align=center;direction=east;strokeWidth=10;" vertex="1" parent="1">
          <mxGeometry x="340" y="-525" width="60" height="35" as="geometry" />
        </mxCell>
        <mxCell id="Hyb_VPHY6Jzi_QFygk6Y-131" value="" style="html=1;verticalLabelPosition=bottom;align=center;labelBackgroundColor=#ffffff;verticalAlign=top;strokeWidth=2;strokeColor=#000000;shadow=0;dashed=0;shape=mxgraph.ios7.icons.share;" vertex="1" parent="1">
          <mxGeometry x="430" y="-529" width="30" height="36" as="geometry" />
        </mxCell>
        <mxCell id="Hyb_VPHY6Jzi_QFygk6Y-132" value="&lt;font style=&quot;font-size: 22px;&quot;&gt;&lt;b&gt;Home&lt;/b&gt;&lt;/font&gt;" style="text;html=1;align=center;verticalAlign=middle;whiteSpace=wrap;rounded=0;" vertex="1" parent="1">
          <mxGeometry x="375" y="-1140" width="60" height="30" as="geometry" />
        </mxCell>
      </root>
    </mxGraphModel>
  </diagram>
</mxfile>
